<mxfile host="Electron" agent="Mozilla/5.0 (Macintosh; Intel Mac OS X 10_15_7) AppleWebKit/537.36 (KHTML, like Gecko) draw.io/24.7.17 Chrome/128.0.6613.36 Electron/32.0.1 Safari/537.36" version="24.7.17">
  <diagram name="Page-1" id="xezb6PN3vt5EdqrsdPEj">
    <mxGraphModel dx="1941" dy="2037" grid="1" gridSize="10" guides="1" tooltips="1" connect="1" arrows="1" fold="1" page="1" pageScale="1" pageWidth="827" pageHeight="1169" math="0" shadow="0">
      <root>
        <mxCell id="0" />
        <mxCell id="1" parent="0" />
        <mxCell id="aGhJljR9NBG2atTTvjj5-1" style="edgeStyle=orthogonalEdgeStyle;rounded=0;orthogonalLoop=1;jettySize=auto;html=1;entryX=0.5;entryY=1;entryDx=0;entryDy=0;" edge="1" parent="1" source="aGhJljR9NBG2atTTvjj5-3" target="aGhJljR9NBG2atTTvjj5-8">
          <mxGeometry relative="1" as="geometry" />
        </mxCell>
        <mxCell id="aGhJljR9NBG2atTTvjj5-2" value="Create account" style="edgeLabel;html=1;align=center;verticalAlign=middle;resizable=0;points=[];" connectable="0" vertex="1" parent="aGhJljR9NBG2atTTvjj5-1">
          <mxGeometry x="-0.0233" y="1" relative="1" as="geometry">
            <mxPoint as="offset" />
          </mxGeometry>
        </mxCell>
        <mxCell id="aGhJljR9NBG2atTTvjj5-3" value="User" style="whiteSpace=wrap;strokeWidth=2;" vertex="1" parent="1">
          <mxGeometry x="-750" y="-630" width="47" height="34" as="geometry" />
        </mxCell>
        <mxCell id="aGhJljR9NBG2atTTvjj5-4" value="System" style="whiteSpace=wrap;strokeWidth=2;" vertex="1" parent="1">
          <mxGeometry x="-533" y="-630" width="65" height="34" as="geometry" />
        </mxCell>
        <mxCell id="aGhJljR9NBG2atTTvjj5-5" value="Disease and Symptom Database" style="whiteSpace=wrap;strokeWidth=2;" vertex="1" parent="1">
          <mxGeometry x="-273" y="-630" width="240" height="34" as="geometry" />
        </mxCell>
        <mxCell id="aGhJljR9NBG2atTTvjj5-6" value="inputs symptoms" style="curved=1;startArrow=none;endArrow=block;exitX=0.9956781914893617;exitY=0.49402573529411764;entryX=-0.005288461538461539;entryY=0.49402573529411764;" edge="1" parent="1" source="aGhJljR9NBG2atTTvjj5-3" target="aGhJljR9NBG2atTTvjj5-4">
          <mxGeometry relative="1" as="geometry">
            <Array as="points" />
          </mxGeometry>
        </mxCell>
        <mxCell id="aGhJljR9NBG2atTTvjj5-7" value="compares symptoms" style="curved=1;startArrow=none;endArrow=block;exitX=1.0012019230769231;exitY=0.49402573529411764;entryX=-0.0013020833333333333;entryY=0.49402573529411764;" edge="1" parent="1" source="aGhJljR9NBG2atTTvjj5-4" target="aGhJljR9NBG2atTTvjj5-5">
          <mxGeometry relative="1" as="geometry">
            <Array as="points" />
          </mxGeometry>
        </mxCell>
        <mxCell id="aGhJljR9NBG2atTTvjj5-8" value="Account" style="whiteSpace=wrap;strokeWidth=2;" vertex="1" parent="1">
          <mxGeometry x="-759" y="-750" width="65" height="34" as="geometry" />
        </mxCell>
      </root>
    </mxGraphModel>
  </diagram>
</mxfile>
